<svg xmlns="http://www.w3.org/2000/svg"
     xmlns:xlink="http://www.w3.org/1999/xlink"
     viewBox="0 0 900 260" width="900" height="260"
     style="border-radius:12px;overflow:hidden;background:#0c101a">
  <defs>
    <!-- Glow filter for neon train headlights/windows and junctions -->
    <filter id="neon-glow" x="-20%" y="-20%" width="140%" height="140%">
      <feGaussianBlur in="SourceGraphic" stdDeviation="2" result="blur"/>
      <feMerge>
        <feMergeNode in="blur"/>
        <feMergeNode in="SourceGraphic"/>
      </feMerge>
    </filter>
  </defs>

  <!-- Grid overlay -->
  <line x1="30" y1="0" x2="30" y2="260" stroke="rgba(0, 210, 255, 0.04)" stroke-width="0.8"/>
  <line x1="60" y1="0" x2="60" y2="260" stroke="rgba(0, 210, 255, 0.04)" stroke-width="0.8"/>
  <line x1="90" y1="0" x2="90" y2="260" stroke="rgba(0, 210, 255, 0.04)" stroke-width="0.8"/>
  <line x1="120" y1="0" x2="120" y2="260" stroke="rgba(0, 210, 255, 0.04)" stroke-width="0.8"/>
  <line x1="150" y1="0" x2="150" y2="260" stroke="rgba(0, 210, 255, 0.04)" stroke-width="0.8"/>
  <line x1="180" y1="0" x2="180" y2="260" stroke="rgba(0, 210, 255, 0.04)" stroke-width="0.8"/>
  <line x1="210" y1="0" x2="210" y2="260" stroke="rgba(0, 210, 255, 0.04)" stroke-width="0.8"/>
  <line x1="240" y1="0" x2="240" y2="260" stroke="rgba(0, 210, 255, 0.04)" stroke-width="0.8"/>
  <line x1="270" y1="0" x2="270" y2="260" stroke="rgba(0, 210, 255, 0.04)" stroke-width="0.8"/>
  <line x1="300" y1="0" x2="300" y2="260" stroke="rgba(0, 210, 255, 0.04)" stroke-width="0.8"/>
  <line x1="330" y1="0" x2="330" y2="260" stroke="rgba(0, 210, 255, 0.04)" stroke-width="0.8"/>
  <line x1="360" y1="0" x2="360" y2="260" stroke="rgba(0, 210, 255, 0.04)" stroke-width="0.8"/>
  <line x1="390" y1="0" x2="390" y2="260" stroke="rgba(0, 210, 255, 0.04)" stroke-width="0.8"/>
  <line x1="420" y1="0" x2="420" y2="260" stroke="rgba(0, 210, 255, 0.04)" stroke-width="0.8"/>
  <line x1="450" y1="0" x2="450" y2="260" stroke="rgba(0, 210, 255, 0.04)" stroke-width="0.8"/>
  <line x1="480" y1="0" x2="480" y2="260" stroke="rgba(0, 210, 255, 0.04)" stroke-width="0.8"/>
  <line x1="510" y1="0" x2="510" y2="260" stroke="rgba(0, 210, 255, 0.04)" stroke-width="0.8"/>
  <line x1="540" y1="0" x2="540" y2="260" stroke="rgba(0, 210, 255, 0.04)" stroke-width="0.8"/>
  <line x1="570" y1="0" x2="570" y2="260" stroke="rgba(0, 210, 255, 0.04)" stroke-width="0.8"/>
  <line x1="600" y1="0" x2="600" y2="260" stroke="rgba(0, 210, 255, 0.04)" stroke-width="0.8"/>
  <line x1="630" y1="0" x2="630" y2="260" stroke="rgba(0, 210, 255, 0.04)" stroke-width="0.8"/>
  <line x1="660" y1="0" x2="660" y2="260" stroke="rgba(0, 210, 255, 0.04)" stroke-width="0.8"/>
  <line x1="690" y1="0" x2="690" y2="260" stroke="rgba(0, 210, 255, 0.04)" stroke-width="0.8"/>
  <line x1="720" y1="0" x2="720" y2="260" stroke="rgba(0, 210, 255, 0.04)" stroke-width="0.8"/>
  <line x1="750" y1="0" x2="750" y2="260" stroke="rgba(0, 210, 255, 0.04)" stroke-width="0.8"/>
  <line x1="780" y1="0" x2="780" y2="260" stroke="rgba(0, 210, 255, 0.04)" stroke-width="0.8"/>
  <line x1="810" y1="0" x2="810" y2="260" stroke="rgba(0, 210, 255, 0.04)" stroke-width="0.8"/>
  <line x1="840" y1="0" x2="840" y2="260" stroke="rgba(0, 210, 255, 0.04)" stroke-width="0.8"/>
  <line x1="870" y1="0" x2="870" y2="260" stroke="rgba(0, 210, 255, 0.04)" stroke-width="0.8"/>
  <line x1="0" y1="25" x2="900" y2="25" stroke="rgba(0, 210, 255, 0.04)" stroke-width="0.8"/>
  <line x1="0" y1="50" x2="900" y2="50" stroke="rgba(0, 210, 255, 0.04)" stroke-width="0.8"/>
  <line x1="0" y1="75" x2="900" y2="75" stroke="rgba(0, 210, 255, 0.04)" stroke-width="0.8"/>
  <line x1="0" y1="100" x2="900" y2="100" stroke="rgba(0, 210, 255, 0.04)" stroke-width="0.8"/>
  <line x1="0" y1="125" x2="900" y2="125" stroke="rgba(0, 210, 255, 0.04)" stroke-width="0.8"/>
  <line x1="0" y1="150" x2="900" y2="150" stroke="rgba(0, 210, 255, 0.04)" stroke-width="0.8"/>
  <line x1="0" y1="175" x2="900" y2="175" stroke="rgba(0, 210, 255, 0.04)" stroke-width="0.8"/>
  <line x1="0" y1="200" x2="900" y2="200" stroke="rgba(0, 210, 255, 0.04)" stroke-width="0.8"/>
  <line x1="0" y1="225" x2="900" y2="225" stroke="rgba(0, 210, 255, 0.04)" stroke-width="0.8"/>
  <line x1="0" y1="250" x2="900" y2="250" stroke="rgba(0, 210, 255, 0.04)" stroke-width="0.8"/>

  <!-- Draw Subway Lines Underlay (glowing shadow) -->
  
    <path d="M 40,130 L 56,130 L 72,130 L 88,130 L 104,130 L 120,130 L 136,130 L 153,130 L 169,130 L 185,130 L 201,130 L 217,125 L 233,120 L 249,115 L 265,110 L 281,105 L 297,100 L 313,95 L 329,90 L 345,85 L 362,80 L 378,75 L 394,70 L 410,76 L 426,82 L 442,88 L 458,94 L 474,100 L 490,106 L 506,112 L 522,118 L 538,124 L 555,130 L 571,136 L 587,142 L 603,148 L 619,148 L 635,148 L 651,148 L 667,148 L 683,148 L 699,148 L 715,148 L 731,148 L 747,148 L 764,148 L 780,148 L 796,148 L 812,148 L 828,148 L 844,148 L 860,148" fill="none" stroke="#00d2ff" stroke-width="6" stroke-linecap="round" stroke-linejoin="round" opacity="0.15" filter="url(#neon-glow)"/>
  
  
    <path d="M 40,100 L 60,130 L 40,160 L 136,100 L 156,130 L 136,160 L 233,90 L 253,120 L 233,150 L 329,60 L 349,90 L 329,120 L 426,52 L 446,82 L 426,112 L 522,88 L 542,118 L 522,148 L 619,118 L 639,148 L 619,178 L 715,118 L 735,148 L 715,178 L 812,118 L 832,148 L 812,178" fill="none" stroke="#9b59b6" stroke-width="6" stroke-linecap="round" stroke-linejoin="round" opacity="0.15" filter="url(#neon-glow)"/>
  

  <!-- Draw Subway Lines Active Track -->
  
    <path d="M 40,130 L 56,130 L 72,130 L 88,130 L 104,130 L 120,130 L 136,130 L 153,130 L 169,130 L 185,130 L 201,130 L 217,125 L 233,120 L 249,115 L 265,110 L 281,105 L 297,100 L 313,95 L 329,90 L 345,85 L 362,80 L 378,75 L 394,70 L 410,76 L 426,82 L 442,88 L 458,94 L 474,100 L 490,106 L 506,112 L 522,118 L 538,124 L 555,130 L 571,136 L 587,142 L 603,148 L 619,148 L 635,148 L 651,148 L 667,148 L 683,148 L 699,148 L 715,148 L 731,148 L 747,148 L 764,148 L 780,148 L 796,148 L 812,148 L 828,148 L 844,148 L 860,148" fill="none" stroke="#00d2ff" stroke-width="3" stroke-linecap="round" stroke-linejoin="round"/>
  
  
    <path d="M 40,100 L 60,130 L 40,160 L 136,100 L 156,130 L 136,160 L 233,90 L 253,120 L 233,150 L 329,60 L 349,90 L 329,120 L 426,52 L 446,82 L 426,112 L 522,88 L 542,118 L 522,148 L 619,118 L 639,148 L 619,178 L 715,118 L 735,148 L 715,178 L 812,118 L 832,148 L 812,178" fill="none" stroke="#9b59b6" stroke-width="3" stroke-linecap="round" stroke-linejoin="round"/>
  

  <!-- Moving Subway Trains along the paths -->
  
    <g>
      <!-- Train capsule group -->
      <g>
        <animateMotion dur="15.852954353761518s" repeatCount="indefinite" path="M 40,130 L 56,130 L 72,130 L 88,130 L 104,130 L 120,130 L 136,130 L 153,130 L 169,130 L 185,130 L 201,130 L 217,125 L 233,120 L 249,115 L 265,110 L 281,105 L 297,100 L 313,95 L 329,90 L 345,85 L 362,80 L 378,75 L 394,70 L 410,76 L 426,82 L 442,88 L 458,94 L 474,100 L 490,106 L 506,112 L 522,118 L 538,124 L 555,130 L 571,136 L 587,142 L 603,148 L 619,148 L 635,148 L 651,148 L 667,148 L 683,148 L 699,148 L 715,148 L 731,148 L 747,148 L 764,148 L 780,148 L 796,148 L 812,148 L 828,148 L 844,148 L 860,148" rotate="auto">
          <!-- Slide offset delay can be implemented via begin attribute -->
        </animateMotion>
        
        <!-- Leading train engine car -->
        <rect x="-10" y="-3" width="16" height="6" rx="1.5" fill="#ffffff" stroke="#333" stroke-width="0.5" />
        <!-- Headlight neon glow -->
        <polygon points="6,-2 15,-5 15,5 6,2" fill="rgba(255,255,255,0.4)" filter="url(#neon-glow)"/>
        
        <!-- Connected trailing coach -->
        <rect x="-24" y="-3" width="12" height="6" rx="1" fill="#00d2ff" stroke="#333" stroke-width="0.5" />
        <!-- Coupling link -->
        <line x1="-12" y1="0" x2="-10" y2="0" stroke="#777" stroke-width="1.5"/>
        
        <!-- Glowing coach window dots -->
        <circle cx="-20" cy="0" r="0.8" fill="#fff" filter="url(#neon-glow)"/>
        <circle cx="-16" cy="0" r="0.8" fill="#fff" filter="url(#neon-glow)"/>
      </g>
    </g>
  
  
    <g>
      <!-- Train capsule group -->
      <g>
        <animateMotion dur="15.852954353761518s" repeatCount="indefinite" path="M 40,100 L 60,130 L 40,160 L 136,100 L 156,130 L 136,160 L 233,90 L 253,120 L 233,150 L 329,60 L 349,90 L 329,120 L 426,52 L 446,82 L 426,112 L 522,88 L 542,118 L 522,148 L 619,118 L 639,148 L 619,178 L 715,118 L 735,148 L 715,178 L 812,118 L 832,148 L 812,178" rotate="auto">
          <!-- Slide offset delay can be implemented via begin attribute -->
        </animateMotion>
        
        <!-- Leading train engine car -->
        <rect x="-10" y="-3" width="16" height="6" rx="1.5" fill="#ffffff" stroke="#333" stroke-width="0.5" />
        <!-- Headlight neon glow -->
        <polygon points="6,-2 15,-5 15,5 6,2" fill="rgba(255,255,255,0.4)" filter="url(#neon-glow)"/>
        
        <!-- Connected trailing coach -->
        <rect x="-24" y="-3" width="12" height="6" rx="1" fill="#9b59b6" stroke="#333" stroke-width="0.5" />
        <!-- Coupling link -->
        <line x1="-12" y1="0" x2="-10" y2="0" stroke="#777" stroke-width="1.5"/>
        
        <!-- Glowing coach window dots -->
        <circle cx="-20" cy="0" r="0.8" fill="#fff" filter="url(#neon-glow)"/>
        <circle cx="-16" cy="0" r="0.8" fill="#fff" filter="url(#neon-glow)"/>
      </g>
    </g>
  

  <!-- Stations mounted on top of lines -->
  
        <g class="station-pop">
          <circle cx="40" cy="130" r="6" fill="#ffffff" stroke="#222" stroke-width="1.5"/>
          <circle cx="40" cy="130" r="2.5" fill="#e74c3c"/>
        </g>
      
  
        <g class="station-pop">
          <rect x="50" y="124" width="12" height="12" rx="2" fill="#ffffff" stroke="#222" stroke-width="1.5"/>
          <circle cx="56" cy="130" r="3" fill="#2c3e50"/>
        </g>
      
  
        <g class="station-pop">
          <circle cx="72" cy="130" r="6" fill="#ffffff" stroke="#222" stroke-width="1.5"/>
          <circle cx="72" cy="130" r="2.5" fill="#e74c3c"/>
        </g>
      
  
        <g class="station-pop">
          <circle cx="88" cy="130" r="6" fill="#ffffff" stroke="#222" stroke-width="1.5"/>
          <circle cx="88" cy="130" r="2.5" fill="#e74c3c"/>
        </g>
      
  
        <circle cx="104" cy="130" r="4" fill="#ffffff" stroke="#222" stroke-width="1.5" class="station-pop"/>
      
  
        <circle cx="120" cy="130" r="2" fill="#fff" stroke="#000" stroke-width="0.5" class="station-pop"/>
      
  
        <circle cx="136" cy="130" r="2" fill="#fff" stroke="#000" stroke-width="0.5" class="station-pop"/>
      
  
  
        <g class="station-pop">
          <circle cx="169" cy="130" r="6" fill="#ffffff" stroke="#222" stroke-width="1.5"/>
          <circle cx="169" cy="130" r="2.5" fill="#e74c3c"/>
        </g>
      
  
  
  
  
  
        <circle cx="249" cy="115" r="4" fill="#ffffff" stroke="#222" stroke-width="1.5" class="station-pop"/>
      
  
        <circle cx="265" cy="110" r="4" fill="#ffffff" stroke="#222" stroke-width="1.5" class="station-pop"/>
      
  
        <g class="station-pop">
          <circle cx="281" cy="105" r="6" fill="#ffffff" stroke="#222" stroke-width="1.5"/>
          <circle cx="281" cy="105" r="2.5" fill="#e74c3c"/>
        </g>
      
  
        <circle cx="297" cy="100" r="2" fill="#fff" stroke="#000" stroke-width="0.5" class="station-pop"/>
      
  
  
  
  
  
  
  
  
  
  
        <circle cx="458" cy="94" r="2" fill="#fff" stroke="#000" stroke-width="0.5" class="station-pop"/>
      
  
        <circle cx="474" cy="100" r="2" fill="#fff" stroke="#000" stroke-width="0.5" class="station-pop"/>
      
  
  
  
  
  
  
  
  
  
        <circle cx="619" cy="148" r="4" fill="#ffffff" stroke="#222" stroke-width="1.5" class="station-pop"/>
      
  
        <g class="station-pop">
          <circle cx="635" cy="148" r="6" fill="#ffffff" stroke="#222" stroke-width="1.5"/>
          <circle cx="635" cy="148" r="2.5" fill="#e74c3c"/>
        </g>
      
  
        <circle cx="651" cy="148" r="2" fill="#fff" stroke="#000" stroke-width="0.5" class="station-pop"/>
      
  
        <g class="station-pop">
          <rect x="661" y="142" width="12" height="12" rx="2" fill="#ffffff" stroke="#222" stroke-width="1.5"/>
          <circle cx="667" cy="148" r="3" fill="#2c3e50"/>
        </g>
      
  
        <g class="station-pop">
          <rect x="677" y="142" width="12" height="12" rx="2" fill="#ffffff" stroke="#222" stroke-width="1.5"/>
          <circle cx="683" cy="148" r="3" fill="#2c3e50"/>
        </g>
      
  
        <circle cx="699" cy="148" r="4" fill="#ffffff" stroke="#222" stroke-width="1.5" class="station-pop"/>
      
  
        <circle cx="715" cy="148" r="4" fill="#ffffff" stroke="#222" stroke-width="1.5" class="station-pop"/>
      
  
        <circle cx="731" cy="148" r="4" fill="#ffffff" stroke="#222" stroke-width="1.5" class="station-pop"/>
      
  
  
        <circle cx="764" cy="148" r="4" fill="#ffffff" stroke="#222" stroke-width="1.5" class="station-pop"/>
      
  
        <circle cx="780" cy="148" r="4" fill="#ffffff" stroke="#222" stroke-width="1.5" class="station-pop"/>
      
  
        <g class="station-pop">
          <rect x="790" y="142" width="12" height="12" rx="2" fill="#ffffff" stroke="#222" stroke-width="1.5"/>
          <circle cx="796" cy="148" r="3" fill="#2c3e50"/>
        </g>
      
  
        <circle cx="812" cy="148" r="2" fill="#fff" stroke="#000" stroke-width="0.5" class="station-pop"/>
      
  
        <g class="station-pop">
          <circle cx="828" cy="148" r="6" fill="#ffffff" stroke="#222" stroke-width="1.5"/>
          <circle cx="828" cy="148" r="2.5" fill="#e74c3c"/>
        </g>
      
  
        <g class="station-pop">
          <rect x="838" y="142" width="12" height="12" rx="2" fill="#ffffff" stroke="#222" stroke-width="1.5"/>
          <circle cx="844" cy="148" r="3" fill="#2c3e50"/>
        </g>
      
  
        <g class="station-pop">
          <rect x="854" y="142" width="12" height="12" rx="2" fill="#ffffff" stroke="#222" stroke-width="1.5"/>
          <circle cx="860" cy="148" r="3" fill="#2c3e50"/>
        </g>
      

  <!-- Construction Hazard blinkers if delays -->
  
        <g transform="translate(249, 97)" class="hazard-blink">
          <!-- Warning triangle -->
          <polygon points="0,-8 -7,4 7,4" fill="#e67e22" stroke="#d35400" stroke-width="0.8"/>
          <!-- Exclamation point -->
          <rect x="-0.6" y="-4" width="1.2" height="4" fill="#fff"/>
          <circle cx="0" cy="2" r="0.8" fill="#fff"/>
        </g>
      

        <g transform="translate(297, 82)" class="hazard-blink">
          <!-- Warning triangle -->
          <polygon points="0,-8 -7,4 7,4" fill="#e67e22" stroke="#d35400" stroke-width="0.8"/>
          <!-- Exclamation point -->
          <rect x="-0.6" y="-4" width="1.2" height="4" fill="#fff"/>
          <circle cx="0" cy="2" r="0.8" fill="#fff"/>
        </g>
      

  <!-- HUD Control System Display -->
  
  <!-- Left Side: System Banner -->
  <g>
    <rect x="8" y="8" width="220" height="22" rx="4" fill="rgba(0,0,0,0.65)" stroke="rgba(255,255,255,0.1)"/>
    <text x="14" y="22" font-family="monospace" font-size="10" fill="#fff" font-weight="bold">
      🚇 Dasmat13 Transit Network
    </text>
  </g>

  <!-- Right Side: Status Diagnostics -->
  <g transform="translate(650, 8)">
    <rect x="0" y="0" width="242" height="52" rx="4" fill="rgba(0,0,0,0.65)" stroke="rgba(255,255,255,0.1)"/>
    <!-- Status Line -->
    <text x="8" y="16" font-family="monospace" font-size="8" fill="#fff" opacity="0.8">SYS-STATUS: <tspan fill="#e67e22" font-weight="bold">MINOR DELAYS</tspan></text>
    <!-- Ridership -->
    <text x="8" y="30" font-family="monospace" font-size="8" fill="#fff" opacity="0.8">RIDERSHIP:  412 pass/day</text>
    <!-- Network Clock -->
    <text x="8" y="44" font-family="monospace" font-size="8" fill="#fff" opacity="0.8">NET-CLOCK:  REDUCED CLK (2 Hz)</text>
  </g>
  

  <style>
    /* Station pop-up zoom transitions on load */
    .station-pop {
      animation: stn-pop-in 0.8s ease-out forwards;
      transform-origin: center;
    }
    @keyframes stn-pop-in {
      from { transform: scale(0.2); opacity: 0; }
      to   { transform: scale(1); opacity: 1; }
    }

    /* Blinking warning triangles */
    .hazard-blink {
      animation: blink 1.2s ease-in-out infinite alternate;
    }
    @keyframes blink {
      0%   { opacity: 0.15; filter: brightness(0.6); }
      100% { opacity: 1; filter: brightness(1.4); }
    }
  </style>
</svg>